<svg width="144" height="33" viewBox="0 0 144 33" fill="none" xmlns="http://www.w3.org/2000/svg">
<path d="M39.9279 24.7686C39.0699 24.7686 38.2779 24.6036 37.5519 24.2736C36.8479 23.9436 36.2869 23.4156 35.8689 22.6896C35.4729 21.9416 35.2859 20.9626 35.3079 19.7526L35.4069 11.2716C35.4069 10.7656 35.3189 10.4026 35.1429 10.1826C34.9669 9.96263 34.6919 9.80863 34.3179 9.72063L33.9219 9.58862V9.25863L39.8289 8.10363L40.1589 8.43363L39.9939 13.1196V21.0726C39.9939 21.7766 40.1919 22.2936 40.5879 22.6236C41.0059 22.9536 41.5229 23.1186 42.1389 23.1186C42.7549 23.1186 43.3049 23.0306 43.7889 22.8546C44.2729 22.6786 44.7569 22.4146 45.2409 22.0626L45.3729 11.3046C45.3729 10.7986 45.2959 10.4466 45.1419 10.2486C44.9879 10.0286 44.7019 9.87463 44.2839 9.78663L43.9539 9.68762V9.35763L49.7289 8.10363L50.0589 8.43363L49.9599 13.1196V22.0626C49.9599 22.5466 50.0259 22.9206 50.1579 23.1846C50.2899 23.4486 50.5759 23.6686 51.0159 23.8446L51.3459 23.9436V24.2736L45.5709 24.6036L45.2739 22.6566C44.5479 23.2506 43.7559 23.7566 42.8979 24.1746C42.0619 24.5706 41.0719 24.7686 39.9279 24.7686Z" fill="#F6F4EE"/>
<path d="M52.6785 24.2736V23.9436L53.1735 23.8116C53.6135 23.6796 53.9105 23.4816 54.0645 23.2176C54.2405 22.9536 54.3285 22.6126 54.3285 22.1946V11.8656C54.3285 11.3816 54.2405 11.0296 54.0645 10.8096C53.9105 10.5676 53.6135 10.4026 53.1735 10.3146L52.6785 10.1826V9.85263L58.3545 7.93862L58.6845 8.26863L58.9815 11.1066V11.3706C59.2895 10.7546 59.6855 10.1936 60.1695 9.68762C60.6755 9.15963 61.2255 8.73063 61.8195 8.40062C62.4355 8.07063 63.0405 7.90563 63.6345 7.90563C64.4705 7.90563 65.1085 8.13663 65.5485 8.59863C65.9885 9.06063 66.2085 9.64363 66.2085 10.3476C66.2085 11.0956 65.9885 11.6786 65.5485 12.0966C65.1305 12.4926 64.6245 12.6906 64.0305 12.6906C63.1065 12.6906 62.2925 12.2286 61.5885 11.3046L61.5225 11.2386C61.3025 10.9306 61.0495 10.7656 60.7635 10.7436C60.4775 10.6996 60.2135 10.8316 59.9715 11.1396C59.7515 11.3376 59.5645 11.5796 59.4105 11.8656C59.2785 12.1296 59.1465 12.4376 59.0145 12.7896V21.9966C59.0145 22.8766 59.3995 23.4266 60.1695 23.6466L61.2255 23.9436V24.2736H52.6785Z" fill="#F6F4EE"/>
<path d="M70.7965 32.1936C69.9165 32.1936 69.2125 31.9736 68.6845 31.5336C68.1785 31.0936 67.9255 30.5326 67.9255 29.8506C67.9255 29.2346 68.1455 28.7396 68.5855 28.3656C69.0255 27.9916 69.5205 27.8046 70.0705 27.8046C70.6205 27.8046 71.0825 27.9146 71.4565 28.1346C71.8305 28.3766 72.1605 28.7176 72.4465 29.1576L72.6775 29.4216C73.1615 30.0816 73.6455 30.0706 74.1295 29.3886C74.3275 29.0586 74.5475 28.6186 74.7895 28.0686C75.0535 27.5406 75.3505 26.8256 75.6805 25.9236L69.2785 10.6116C69.1245 10.1936 68.9595 9.86363 68.7835 9.62162C68.6075 9.35763 68.3215 9.13763 67.9255 8.96163L67.3315 8.73063V8.40062H75.5485V8.69763L74.8885 8.96163C74.4045 9.11563 74.1515 9.36863 74.1295 9.72063C74.1295 10.0506 74.2175 10.4686 74.3935 10.9746L77.8255 19.8846L81.0925 10.8756C81.2685 10.3696 81.3345 9.95162 81.2905 9.62162C81.2465 9.26963 80.9715 9.02763 80.4655 8.89563L79.7725 8.73063V8.40062H84.3595V8.73063L83.6335 8.96163C83.1275 9.11563 82.7755 9.33563 82.5775 9.62162C82.3795 9.90763 82.1925 10.3036 82.0165 10.8096L76.7035 25.2966C75.8455 27.6066 74.9875 29.3336 74.1295 30.4776C73.2715 31.6216 72.1605 32.1936 70.7965 32.1936Z" fill="#F6F4EE"/>
<path d="M91.5788 24.7686C90.2808 24.7686 89.1148 24.4826 88.0808 23.9106C87.0468 23.3166 86.2218 22.4146 85.6058 21.2046C85.0118 19.9726 84.7148 18.3996 84.7148 16.4856C84.7148 14.5496 85.0558 12.9546 85.7378 11.7006C86.4198 10.4246 87.3218 9.47863 88.4438 8.86263C89.5658 8.22463 90.7868 7.90563 92.1068 7.90563C92.8768 7.90563 93.6138 7.98263 94.3178 8.13663C95.0218 8.29063 95.6488 8.52163 96.1988 8.82963V4.53962C96.1988 4.07763 96.1218 3.73663 95.9678 3.51663C95.8358 3.29662 95.5388 3.14262 95.0768 3.05463L94.4498 2.92263V2.59263L100.456 1.14062L100.819 1.43763L100.687 6.05762V22.1946C100.687 22.6346 100.764 22.9976 100.918 23.2836C101.072 23.5476 101.358 23.7346 101.776 23.8446L102.073 23.9436V24.2736L96.4298 24.6366L96.1328 23.4486C95.5388 23.8446 94.8568 24.1636 94.0868 24.4056C93.3388 24.6476 92.5028 24.7686 91.5788 24.7686ZM93.4928 23.5476C94.4168 23.5476 95.2638 23.2726 96.0338 22.7226V9.62162C95.2198 9.09363 94.3838 8.82963 93.5258 8.82963C92.4698 8.82963 91.5678 9.44563 90.8198 10.6776C90.0718 11.8876 89.6978 13.8016 89.6978 16.4196C89.6978 19.0376 90.0498 20.8856 90.7538 21.9636C91.4578 23.0196 92.3708 23.5476 93.4928 23.5476Z" fill="#F6F4EE"/>
<path d="M107.492 6.18962C106.744 6.18962 106.106 5.95863 105.578 5.49663C105.072 5.01263 104.819 4.40763 104.819 3.68163C104.819 2.93362 105.072 2.32862 105.578 1.86663C106.106 1.40462 106.744 1.17362 107.492 1.17362C108.24 1.17362 108.867 1.40462 109.373 1.86663C109.879 2.32862 110.132 2.93362 110.132 3.68163C110.132 4.40763 109.879 5.01263 109.373 5.49663C108.867 5.95863 108.24 6.18962 107.492 6.18962ZM103.598 24.2736V23.9436L104.06 23.8116C104.5 23.6796 104.797 23.4816 104.951 23.2176C105.127 22.9536 105.215 22.6016 105.215 22.1616V11.8326C105.215 11.3706 105.127 11.0296 104.951 10.8096C104.797 10.5676 104.5 10.4026 104.06 10.3146L103.598 10.2156V9.88563L109.637 7.93862L109.967 8.26863L109.868 12.9546V22.1946C109.868 22.6346 109.945 22.9866 110.099 23.2506C110.275 23.5146 110.572 23.7126 110.99 23.8446L111.32 23.9436V24.2736H103.598Z" fill="#F6F4EE"/>
<path d="M120.965 24.7686C119.469 24.7686 118.105 24.4496 116.873 23.8116C115.663 23.1516 114.695 22.2056 113.969 20.9736C113.265 19.7196 112.913 18.1906 112.913 16.3866C112.913 14.6046 113.298 13.0866 114.068 11.8326C114.86 10.5566 115.905 9.58862 117.203 8.92863C118.523 8.24663 119.964 7.90563 121.526 7.90563C122.802 7.90563 123.88 8.11463 124.76 8.53263C125.64 8.95062 126.311 9.50063 126.773 10.1826C127.235 10.8426 127.466 11.5356 127.466 12.2616C127.466 12.8776 127.279 13.3616 126.905 13.7136C126.531 14.0436 126.047 14.2086 125.453 14.2086C124.815 14.2086 124.298 13.9776 123.902 13.5156C123.506 13.0536 123.275 12.4486 123.209 11.7006C123.187 11.2166 123.198 10.8096 123.242 10.4796C123.286 10.1276 123.286 9.77563 123.242 9.42363C123.154 9.04963 123.011 8.80763 122.813 8.69763C122.637 8.56563 122.384 8.49963 122.054 8.49963C120.712 8.49963 119.667 9.08263 118.919 10.2486C118.193 11.4146 117.83 13.2736 117.83 15.8256C117.83 18.0476 118.237 19.7526 119.051 20.9406C119.887 22.1066 121.163 22.6896 122.879 22.6896C123.913 22.6896 124.749 22.5026 125.387 22.1286C126.025 21.7546 126.641 21.1936 127.235 20.4456L127.565 20.7096C127.015 22.0076 126.168 23.0086 125.024 23.7126C123.88 24.4166 122.527 24.7686 120.965 24.7686Z" fill="#F6F4EE"/>
<path d="M137.177 7.90563C138.607 7.90563 139.828 8.20263 140.84 8.79663C141.852 9.36863 142.622 10.1606 143.15 11.1726C143.7 12.1626 143.975 13.2956 143.975 14.5716C143.975 14.8136 143.964 15.0666 143.942 15.3306C143.92 15.5726 143.876 15.7926 143.81 15.9906H133.976C133.998 18.3666 134.416 20.0826 135.23 21.1386C136.066 22.1726 137.298 22.6896 138.926 22.6896C140.026 22.6896 140.917 22.5136 141.599 22.1616C142.281 21.8096 142.919 21.2926 143.513 20.6106L143.843 20.9076C143.161 22.1176 142.248 23.0636 141.104 23.7456C139.982 24.4276 138.629 24.7686 137.045 24.7686C135.483 24.7686 134.097 24.4386 132.887 23.7786C131.677 23.0966 130.731 22.1286 130.049 20.8746C129.367 19.6206 129.026 18.1246 129.026 16.3866C129.026 14.5826 129.422 13.0536 130.214 11.7996C131.006 10.5236 132.018 9.55563 133.25 8.89563C134.504 8.23563 135.813 7.90563 137.177 7.90563ZM137.078 8.56563C136.44 8.56563 135.89 8.76363 135.428 9.15963C134.988 9.53363 134.636 10.2156 134.372 11.2056C134.13 12.1736 133.998 13.5486 133.976 15.3306H139.619C139.839 12.9326 139.751 11.2056 139.355 10.1496C138.959 9.09363 138.2 8.56563 137.078 8.56563Z" fill="#F6F4EE"/>
<path fill-rule="evenodd" clip-rule="evenodd" d="M12.7155 26.334C14.5015 28.196 16.8195 29.127 19.6695 29.127C21.5695 29.127 23.2985 28.709 24.8565 27.873C26.4145 26.999 27.7825 25.897 28.9605 24.567C30.1765 23.237 31.1645 21.831 31.9245 20.349L31.3545 19.95C30.4045 21.166 29.2455 22.23 27.8775 23.142C26.5095 24.016 25.0085 24.453 23.3745 24.453C21.4365 24.453 19.9165 23.845 18.8145 22.629C17.7125 21.413 17.1425 19.494 17.1045 16.872C20.4865 16.264 23.4315 15.39 25.9395 14.25C28.4475 13.072 30.3855 11.761 31.7535 10.317C33.1595 8.873 33.8625 7.41 33.8625 5.928C33.8625 4.142 33.2165 2.717 31.9245 1.653C30.6705 0.551 28.8465 0 26.4525 0C24.1345 0 21.9875 0.494 20.0115 1.482C18.0355 2.47 16.2875 3.838 14.7675 5.586C13.2855 7.296 12.1265 9.253 11.2905 11.457C10.7035 13.0044 10.3226 14.608 10.1478 16.2677C7.27459 15.4816 5.23485 14.714 3.51116 13.3047C2.76194 12.7193 2.05097 11.8659 2.18485 10.9282C2.22311 10.6602 2.24223 10.5263 2.47736 10.3377C2.95321 11.3796 4.03879 12.5256 5.41688 13.0812C7.38558 13.8749 9.11354 13.4381 9.30481 12.0984C9.43309 9.74165 6.10543 8.25843 6.10543 8.25843C4.92422 7.78223 3.70475 7.57396 2.84076 7.79235C1.76078 8.06535 0.820291 8.81961 0.648152 10.0253C0.43776 11.4989 1.01485 13.29 4.08826 15.0958C5.74724 16.1433 8.20333 16.8163 10.0674 17.2734C10.0468 17.6498 10.0365 18.029 10.0365 18.411C10.0365 21.831 10.9295 24.472 12.7155 26.334ZM23.2035 2.679C24.2295 1.919 25.1795 1.539 26.0535 1.539C26.8135 1.539 27.4405 1.805 27.9345 2.337C28.4285 2.869 28.6755 3.705 28.6755 4.845C28.6755 7.201 27.7825 9.31 25.9965 11.172C24.2485 13.034 21.2845 14.535 17.1045 15.675C17.2185 13.775 17.5605 11.989 18.1305 10.317C18.7385 8.607 19.4795 7.106 20.3535 5.814C21.2655 4.484 22.2155 3.439 23.2035 2.679Z" fill="#F6F4EE"/>
</svg>
