<svg width="16" height="10" viewBox="0 0 16 10" fill="none" xmlns="http://www.w3.org/2000/svg">
<g clip-path="url(#clip0_509_7179)">
<path d="M13.7505 7.40312C13.7499 7.52305 13.6995 7.64102 13.6045 7.74492C13.392 7.9793 12.9795 8.125 12.5317 8.125L3.46923 8.125C3.02016 8.125 2.60891 7.9793 2.39641 7.74492L2.3961 7.74492C2.19641 7.52793 2.20173 7.26016 2.41016 7.04629L7.04641 2.20547L7.0461 2.20567C7.3761 1.87676 8.07016 1.77734 8.59673 1.98359C8.74048 2.04004 8.86204 2.11602 8.95204 2.20586L13.5895 7.04746L13.5892 7.04746C13.693 7.15508 13.7483 7.27812 13.7492 7.40352L13.7505 7.40312Z" fill="#018A75"/>
</g>
<defs>
<clipPath id="clip0_509_7179">
<rect width="10" height="16" fill="white" transform="translate(0 10) rotate(-90)"/>
</clipPath>
</defs>
</svg>
