<svg fill="none" height="50" viewBox="0 0 50 50" width="50" xmlns="http://www.w3.org/2000/svg"><g stroke="#018a75" stroke-linecap="round" stroke-linejoin="round" stroke-miterlimit="10" stroke-width="2"><path d="m41.7185 28.5252c1.7695-1.7695.8791-5.5289-1.9887-8.3968-2.8679-2.8679-6.6273-3.7582-8.3968-1.9887-1.7696 1.7695-.8792 5.5289 1.9887 8.3968s6.6272 3.7583 8.3968 1.9887z"/><path d="m6.25 4.6875h6.5625c5 0 9.0625 4.0625 9.0625 9.0625v20.625c0 1.7188 1.4062 3.125 3.125 3.125s3.125-1.4062 3.125-3.125v-5.9375c0-2.1875.7812-4.5313 2.0312-6.25l.3126-.4688"/><path d="m7.8125 4.6875 2.1875 3.28125c.625.9375 1.5625 1.40625 2.5 1.40625 1.7188 0 3.125 1.4062 3.125 3.125v21.5625c0 6.25 5 11.25 11.25 11.25 5.7813 0 10.625-4.6875 10.625-10.625 0-1.875.4687-3.75 1.4062-5.3125"/><path d="m23.4375 17.1875h-3.125"/><path d="m23.4375 21.875h-3.125"/><path d="m23.4375 26.5625h-3.125"/><path d="m23.4375 31.25h-3.125"/></g></svg>