<svg fill="none" height="50" viewBox="0 0 50 50" width="50" xmlns="http://www.w3.org/2000/svg"><g stroke="#018a75" stroke-linecap="round" stroke-linejoin="round" stroke-miterlimit="10" stroke-width="2"><path d="m19.5312 33.4375-2.3437-2.3438 17.8125-17.8125"/><path d="m39.6875 15.625h-4.6875v-4.6875l5.9375-5.9375 4.6875 4.6875z"/><path d="m30.1572 18.1233c-3.4375-2.3438-7.9687-2.0313-10.7812.7812-.625.625-1.25 1.5625-1.5625 2.3438-.625 1.4062-2.0313 2.3437-3.4375 2.5-1.4063.1562-2.9688.3125-4.2188.9375-6.24999 3.2812-6.40624 11.7187-1.09374 17.0312 5.31254 5.3125 13.75004 5.1563 17.03124-1.0937.625-1.25.7813-2.8125.9375-4.2188.1563-1.4062 1.0938-2.8125 2.5-3.4375.3125-.1562 1.0938-.4687 1.7188-.625 1.25-.3125 2.1875-1.4062 2.6562-2.5.3125-.9375 0-2.0312-.9375-2.5l-2.5-1.4062"/><path d="m12.5 33.4375 4.6875 4.6875"/></g></svg>