<svg fill="none" height="50" viewBox="0 0 50 50" width="50" xmlns="http://www.w3.org/2000/svg"><g stroke="#018a75" stroke-linecap="round" stroke-linejoin="round" stroke-miterlimit="10" stroke-width="2"><path d="m12.6563 39.6875-2.3438-2.3438 3.5937-5.9375 4.6876 4.6876z"/><path d="m38.2812 9.375 2.3438 2.3438-13.9062 16.2499-4.6876-4.6875z"/><path d="m40.625 11.7188-2.3438-2.3438 2.3438-4.6875 4.6875 4.6875z"/><path d="m36.0938 7.03125 2.1874 2.34375"/><path d="m40.625 11.7188 2.3438 2.1874"/><path d="m31.4062 9.375 2.3438 2.3438"/><path d="m38.2812 16.25 2.3438 2.3438"/><path d="m29.375 17.0318c-3.75-2.1875-8.75-1.7188-11.875 1.5625l-.3125.3125c.9375 1.875.625 4.0625-.9375 5.625-1.875 1.875-5 1.875-6.875.1562-.46875.3125-.9375.625-1.25 1.0938-4.53125 4.5312-4.53125 11.875 0 16.25 4.5313 4.5312 11.875 4.5312 16.25 0 .4688-.4688.7812-.7813 1.0937-1.25-1.875-1.875-1.8749-5 .1563-6.875 1.5625-1.5625 3.75-1.875 5.625-.9375l.1563-.1563c3.2812-3.2812 3.75-8.125 1.5625-11.875"/></g></svg>