<svg fill="none" height="50" viewBox="0 0 50 50" width="50" xmlns="http://www.w3.org/2000/svg"><g stroke="#018a75" stroke-linejoin="round" stroke-miterlimit="10" stroke-width="2"><path d="m45.3125 20.3125h-40.625v25h40.625z"/><path d="m14.0625 32.8125v12.5"/><path d="m15.625 20.3125h-6.25v12.5h6.25z"/><path d="m25 32.8125v12.5"/><path d="m28.125 20.3125h-6.25v12.5h6.25z"/><path d="m35.9375 32.8125v12.5"/><path d="m40.625 20.3125h-6.25v12.5h6.25z"/><path d="m45.3125 4.6875h-40.625v15.625h40.625z"/><path d="m26.5625 9.375h-15.625v6.25h15.625z"/><path d="m35.9375 15.625c1.7259 0 3.125-1.3991 3.125-3.125s-1.3991-3.125-3.125-3.125-3.125 1.3991-3.125 3.125 1.3991 3.125 3.125 3.125z"/></g></svg>