<svg fill="none" height="50" viewBox="0 0 50 50" width="50" xmlns="http://www.w3.org/2000/svg"><g stroke="#018a75" stroke-linecap="round" stroke-linejoin="round" stroke-miterlimit="10" stroke-width="2"><path d="m21.2515 40.6267-4.6875-19.0625c2.9687-1.5625 4.6875-5.4687 3.9062-9.5312-.9375-4.84377-4.8437-8.12502-8.9062-7.34377-4.06251.78125-6.56251 5.31247-5.62501 10.15627.78125 4.0625 3.75 7.0312 7.03121 7.5l2.8125 19.5312c.1563 1.5625 1.7188 2.6563 3.2813 2.3438 1.5625-.4688 2.5-2.0313 2.1875-3.5938z"/><path d="m5.9375 14.8438c5 .9375 10.3125-.0001 14.6875-2.8126"/><path d="m38.282 7.81105c-3.9063-.78125-7.6563 2.34375-8.5938 7.03125-.7812 3.9062.9375 7.6562 3.75 9.0625l-4.375 18.2813c-.4687 1.4062.625 2.9687 2.0313 3.2812 1.4062.3125 2.9687-.7812 3.125-2.3437l2.6562-18.5938c3.125-.3125 5.9375-3.2813 6.7188-7.0313.9375-4.6875-1.4063-9.06245-5.3125-9.68745z"/><path d="m43.5937 17.5c-4.8437.9375-9.8437 0-13.9062-2.6562"/></g></svg>