<svg fill="none" height="50" viewBox="0 0 50 50" width="50" xmlns="http://www.w3.org/2000/svg"><g stroke="#018a75" stroke-linecap="round" stroke-linejoin="round" stroke-miterlimit="10" stroke-width="2"><path d="m27.8125 32.8125h-5.7812c-3.5938 0-6.5625-2.9688-6.5625-6.5625v-15c.1562-3.59375 3.125-6.5625 6.7187-6.5625h5.7813c3.4375 0 6.4062 2.96875 6.4062 6.5625v15.1562c0 3.4375-2.9688 6.4063-6.5625 6.4063z"/><path d="m18.75 12.5h-3.125"/><path d="m18.75 18.75h-3.125"/><path d="m34.375 18.75h-9.375"/><path d="m18.75 25h-3.125"/><path d="m34.375 12.5h-9.375"/><path d="m34.375 25h-9.375"/><path d="m6.25 18.75h3.125v7.5c0 7.0312 5.625 12.8125 12.8125 12.8125h5.7812c7.0313 0 12.8126-5.625 12.8126-12.8125v-7.5h3.125"/><path d="m34.375 45.3125c-2.5-.9375-5.7813-1.5625-9.375-1.5625s-6.875.625-9.375 1.5625"/></g></svg>