<svg fill="none" height="50" viewBox="0 0 50 50" width="50" xmlns="http://www.w3.org/2000/svg" xmlns:xlink="http://www.w3.org/1999/xlink"><clipPath id="a"><path d="m0 0h50v50h-50z"/></clipPath><g style="clip-path:url(#a);stroke:#018a75;stroke-width:2;stroke-miterlimit:10;stroke-linecap:round;stroke-linejoin:round"><path d="m45.3125 14.0625c-2.9687 4.8437-8.125 7.8125-13.75 7.8125h-20.625c-.9375-.9375-2.34375-1.5625-3.75-1.5625s-2.5 1.0938-2.5 2.5v4.375c0 1.4062 1.09375 2.5 2.5 2.5s2.8125-.625 3.75-1.5625h20.625c5.625 0 10.9375 2.9688 13.75 7.8125z"/><path d="m27.3438 35.9375h-9.375c-2.1875 0-3.9063-1.7188-3.9063-3.9063 0-2.1874 1.7188-3.9062 3.9063-3.9062h9.375c2.1874 0 3.9062 1.7188 3.9062 3.9062 0 2.1875-1.7188 3.9063-3.9062 3.9063z"/><path d="m45.3125 12.5v25"/></g></svg>