<svg fill="none" height="30" viewBox="0 0 30 30" width="30" xmlns="http://www.w3.org/2000/svg"><g stroke="#192129" stroke-linecap="round" stroke-linejoin="round" stroke-miterlimit="10" stroke-width="2"><path d="m16.7812 21.6568c-1.5937-.375-2.8125-1.875-2.8125-3.5625 1.3125-.75 2.25-2.25 2.25-3.9375 0-.8438.6563-1.5 1.5-1.5v-1.7813c0-2.15621-1.5937-4.03122-3.6562-4.31247-1.5-.1875-2.8125.46875-3.6563 1.59375-.6562-.1875-1.2187-.09375-1.9687.46875s-1.21875 1.49997-1.21875 2.43747v.75 1.125.9375c0 1.6875.84375 3.2813 2.25 4.125 0 1.6875-1.21875 3.1875-2.8125 3.5625-1.96875.6563-3.46875 2.1563-3.84375 4.2188 0 .1875.1875.4687.375.4687h16.9687c.2813 0 .4688-.2812.375-.4687-.2812-2.0625-1.7812-3.6563-3.75-4.125z"/><path d="m24.0938 12.0938c0 1.6874-.9376 3.0937-2.2501 3.9375 0 1.3125.8438 2.4375 1.9688 2.8125 1.5.5625 2.7188 1.8749 3 3.4687l.0938.6563c.0937.2812-.1876.4687-.3751.4687h-7.0312"/><path d="m27.0937 11.7188c-.9375.1875-1.9687.2812-2.9999.2812-2.4375 0-4.6876-.6562-6.4688-1.6875"/><path d="m13.6875 6.5625c1.3125-1.96875 3.4687-2.8125 6-2.8125 4.125 0 7.5 2.4375 7.5 8.3437 0 2.5313-.6562 5.3438-1.6875 7.5938"/></g></svg>