<svg fill="none" height="50" viewBox="0 0 50 50" width="50" xmlns="http://www.w3.org/2000/svg"><g stroke="#018a75" stroke-linecap="round" stroke-linejoin="round" stroke-miterlimit="10" stroke-width="2"><path d="m25 43.75c6.9036 0 12.5-5.5964 12.5-12.5s-5.5964-12.5-12.5-12.5-12.5 5.5964-12.5 12.5 5.5964 12.5 12.5 12.5z"/><path d="m28.125 37.5c1.7259 0 3.125-1.3991 3.125-3.125s-1.3991-3.125-3.125-3.125-3.125 1.3991-3.125 3.125 1.3991 3.125 3.125 3.125z"/><path d="m14.0625 45.3125 3.125-3.125"/><path d="m35.9375 45.3125-3.125-3.125"/><path d="m13.2812 18.75c3.8833 0 7.0313-1.1193 7.0313-2.5s-3.148-2.5-7.0313-2.5c-3.8832 0-7.0312 1.1193-7.0312 2.5s3.148 2.5 7.0312 2.5z"/><path d="m20.3125 16.25v-7.5c0-1.40625-3.125-2.5-7.0313-2.5-3.9062 0-7.0312 1.09375-7.0312 2.5v7.6562"/><path d="m38.2812 18.75c3.8833 0 7.0313-1.1193 7.0313-2.5s-3.148-2.5-7.0313-2.5c-3.8832 0-7.0312 1.1193-7.0312 2.5s3.148 2.5 7.0312 2.5z"/><path d="m45.3125 16.25v-7.5c0-1.40625-3.125-2.5-7.0313-2.5-3.9062 0-7.0312 1.09375-7.0312 2.5v7.6562"/></g></svg>