<svg fill="none" height="30" viewBox="0 0 30 30" width="30" xmlns="http://www.w3.org/2000/svg" xmlns:xlink="http://www.w3.org/1999/xlink"><clipPath id="a"><path d="m0 0h30v30h-30z"/></clipPath><g style="clip-path:url(#a);stroke:#192129;stroke-width:2;stroke-miterlimit:10;stroke-linecap:round;stroke-linejoin:round"><path d="m21.5625 22.5v4.6875"/><path d="m9.375 19.6875v-10.3125c0-1.59375-1.21875-2.8125-2.8125-2.8125h-5.625v10.3125h5.625c1.59375 0 2.8125 1.2187 2.8125 2.8125z"/><path d="m9.375 19.6875v-10.3125c0-1.59375 1.2187-2.8125 2.8125-2.8125h5.625v10.3125h-5.625c-1.5938 0-2.8125 1.2187-2.8125 2.8125z"/><path d="m11.4375 16.9688c.2813.2812.4688.5624.75.8437v7.5"/><path d="m20.625 22.5h3.75c1.0312 0 1.875-.8437 1.875-1.875v-3.75h2.8125l-2.8125-5.625c0-4.6875-3.75-8.4375-8.4375-8.4375-3.1875 0-6 1.78125-7.4063 4.40625"/></g></svg>