<svg fill="none" height="23" viewBox="0 0 31 23" width="31" xmlns="http://www.w3.org/2000/svg"><path d="m6.25068 0c2.08356 0 3.74478.75824 4.98362 2.27472 1.2952 1.46032 1.9428 3.39805 1.9428 5.81319 0 3.14529-.9291 6.09399-2.7875 8.84619-1.85826 2.6959-4.16707 4.7179-6.92638 6.0659l-.50682-1.011c1.18256-.8986 2.22435-2.0501 3.12534-3.4542.901-1.4042 1.5486-3.1453 1.94278-5.2234l-1.77384-.4213c-1.97093-.4493-3.51953-1.2637-4.64578-2.4432-1.069932-1.23567-1.6049-2.69598-1.6049-4.38097 0-1.79731.591281-3.25763 1.77384-4.38095 1.23888-1.12332 2.73116-1.68498 4.47684-1.68498zm17.82292 0c2.0835 0 3.7447.75824 4.9836 2.27472 1.2952 1.46032 1.9428 3.39805 1.9428 5.81319 0 3.14529-.9292 6.09399-2.7875 8.84619-1.8583 2.6959-4.1671 4.7179-6.9264 6.0659l-.5068-1.011c1.1826-.8986 2.2243-2.0501 3.1253-3.4542.901-1.4042 1.5486-3.1453 1.9428-5.2234l-1.7738-.4213c-1.971-.4493-3.5196-1.2637-4.6458-2.4432-1.0699-1.23567-1.6049-2.69598-1.6049-4.38097 0-1.79731.5913-3.25763 1.7738-4.38095 1.2389-1.12332 2.7312-1.68498 4.4769-1.68498z" fill="#e3e1d5"/></svg>